<svg width="140" height="127" viewBox="0 0 140 127" fill="none" xmlns="http://www.w3.org/2000/svg">
<path fill-rule="evenodd" clip-rule="evenodd" d="M4.11743 45.987V55.1748H30.993C34.1168 55.1748 38.1079 52.2862 38.1079 47.5079C38.1079 45.5861 38.8429 44.3325 36.5841 41.7904L33.1465 37.7173C31.1767 35.8797 33.3818 35.8797 35.0363 35.8797H46.3834V55.1748H55.3824V35.8797H67.511V27.6165H28.2366C23.4583 27.6165 21.1217 32.2046 21.2532 34.5934C21.3854 36.9822 21.8248 39.9877 25.7955 43.5982C29.4176 46.8905 24.0023 45.987 23.4583 45.987H4.11743V45.987ZM87.4096 27.6165H72.8922L64.7539 55.1755H73.8109L75.2803 51.3166H84.8356L86.254 55.1755H95.1259L87.4096 27.6165V27.6165ZM77.3023 44.7007L80.4261 34.5934L83.367 44.7007H77.3023V44.7007ZM123.794 45.987C120.303 45.987 120.303 44.7007 120.303 44.7007C123.294 44.7007 125.947 40.3421 125.947 35.8797C125.947 31.4173 121.589 27.6165 118.096 27.6165H98.5649V55.1755H108.489V45.9877C108.489 45.9877 112.715 50.9491 114.92 52.9704C117.126 54.9917 117.309 55.1755 120.302 55.1755H135.88V45.9877C135.882 45.987 127.285 45.987 123.794 45.987V45.987ZM114.789 39.5555H108.491V34.5934H114.789C117.677 34.5934 118.177 39.5555 114.789 39.5555ZM4.11743 58.6661H14.2705L16.8431 67.8553L19.2319 58.6661H29.8904L32.6468 67.8553L35.4038 58.6661H44.2241L36.1381 86.2316H28.0529L24.5099 73.1835L20.5182 86.2316H12.2492L4.11743 58.6661ZM65.0611 58.8252H50.5437L42.4062 86.3834H51.4625L52.9325 82.5253H62.4885L63.907 86.3834H72.7796L65.0611 58.8252ZM54.9546 75.9086L58.0784 65.8014L61.0185 75.9086H54.9546ZM123.977 66.9366C122.325 66.9366 120.523 67.1298 122.493 68.9666L125.931 73.0404C128.19 75.5825 128.153 76.6422 128.153 78.5655C128.153 83.3431 123.426 86.2316 120.303 86.2316L98.5889 86.3776C95.5972 86.3776 95.4142 86.1946 93.2084 84.1733C91.0041 82.152 86.777 77.1898 86.777 77.1898V86.3776H76.8542V58.8194H96.3853C99.8766 58.8194 104.236 62.6209 104.236 67.0826C104.236 71.5457 101.583 75.9035 98.5903 75.9035C98.5903 75.9035 99.9064 77.2269 102.111 77.2269C104.317 77.2269 112.808 77.2356 112.808 77.2356C113.351 77.2356 118.766 78.1391 115.144 74.8468C111.174 71.2363 110.734 68.2323 110.602 65.8435C110.47 63.4547 112.535 58.6668 117.312 58.6668H135.883V66.9373H123.977V66.9366V66.9366ZM93.0762 70.7577H86.7762V65.7955H93.0762C95.9647 65.7955 96.4637 70.7577 93.0762 70.7577Z" fill="white"/>
</svg>
